<svg xmlns="http://www.w3.org/2000/svg" xmlns:xlink="http://www.w3.org/1999/xlink" version="1" width="48" height="48" viewBox="0.171 0.201 512 512"><defs><linearGradient id="i"><stop offset="0" stop-color="#6376e6"/><stop offset=".501" stop-color="#222989"/><stop offset="1" stop-color="#00003d"/></linearGradient><linearGradient id="h"><stop offset="0"/><stop offset=".848" stop-opacity=".498"/><stop offset="1" stop-opacity="0"/></linearGradient><linearGradient id="g"><stop offset="0"/><stop offset="1" stop-opacity="0"/></linearGradient><linearGradient id="f"><stop offset="0"/><stop offset="1" stop-opacity="0"/></linearGradient><linearGradient id="e"><stop offset="0" stop-color="#282828"/><stop offset=".393" stop-color="gray"/><stop offset="1" stop-color="#d9d9d9"/></linearGradient><linearGradient id="d"><stop offset="0" stop-color="#2b2b2b"/><stop offset=".5" stop-color="#828383"/><stop offset="1" stop-color="#dadbdb"/></linearGradient><linearGradient id="c"><stop offset="0" stop-color="#b6b3d8"/><stop offset="1" stop-color="#b6b3d8" stop-opacity="0"/></linearGradient><linearGradient id="b"><stop offset="0"/><stop offset="1" stop-opacity="0"/></linearGradient><linearGradient id="a"><stop offset="0" stop-color="#bab8db"/><stop offset="1" stop-color="#5955a9" stop-opacity=".992"/></linearGradient><radialGradient cx="20.952" cy="-108.969" r="266.765" fx="20.952" fy="-108.969" id="k" xlink:href="#a" gradientUnits="userSpaceOnUse" gradientTransform="matrix(.68174 0 0 .59054 -3.852 -28.935)"/><radialGradient cx="233.888" cy="471.262" r="170.494" fx="233.888" fy="471.262" id="j" xlink:href="#b" gradientUnits="userSpaceOnUse" gradientTransform="matrix(1 0 0 .18541 0 383.885)"/><radialGradient cx="299.701" cy="371.764" r="76.696" fx="299.701" fy="371.764" id="l" xlink:href="#c" gradientUnits="userSpaceOnUse" gradientTransform="matrix(1 0 0 .91216 0 32.655)"/><radialGradient cx="289.441" cy="390.452" r="17.677" fx="289.441" fy="390.452" id="o" xlink:href="#d" gradientUnits="userSpaceOnUse" gradientTransform="matrix(.4147 .33006 -.5059 .63565 346.953 49.48)"/><radialGradient cx="283.507" cy="382.148" r="17.677" fx="283.507" fy="382.148" id="p" xlink:href="#d" gradientUnits="userSpaceOnUse" gradientTransform="matrix(.4147 .33006 -.5059 .63565 448.41 -65.398)"/><radialGradient cx="418.456" cy="181.19" r="63.069" fx="418.456" fy="181.19" id="q" xlink:href="#e" gradientUnits="userSpaceOnUse" gradientTransform="matrix(-.06557 -.05972 1.6871 -1.85217 171.908 540.515)"/><radialGradient cx="284.467" cy="-158.178" r="110.297" fx="284.467" fy="-158.178" id="m" xlink:href="#h" gradientUnits="userSpaceOnUse" gradientTransform="matrix(-1.24976 1.37983 -.09629 -.07297 674.383 -70.59)"/><radialGradient cx="425.51" cy="356.623" r="143.342" fx="425.51" fy="356.623" id="n" xlink:href="#i" gradientUnits="userSpaceOnUse" gradientTransform="matrix(-.10082 -.08087 1.07453 -1.33953 13.843 784.793)"/></defs><path d="M404.382 471.262c.019 17.46-76.32 31.617-170.494 31.617-94.175 0-170.513-14.156-170.494-31.617-.02-17.461 76.319-31.618 170.494-31.618 94.174 0 170.513 14.157 170.494 31.618z" transform="matrix(1.34346 0 0 1.39344 -81.887 -193.706)" fill="url(#j)" stroke="#7b0000" stroke-width="0"/><path d="M277.197 7.985c0 157.045-119.435 284.354-266.766 284.354-147.33 0-266.765-127.31-266.765-284.354 0-157.044 119.435-284.354 266.765-284.354 147.33 0 266.766 127.31 266.766 284.354z" transform="matrix(.8855 0 0 .83922 227.802 232.65)" fill="url(#k)" stroke="#7b0000" stroke-width="0"/><path d="M376.398 371.764c.012 38.645-34.33 69.979-76.697 69.979-42.366 0-76.708-31.334-76.696-69.98-.012-38.644 34.33-69.978 76.696-69.978 42.367 0 76.709 31.334 76.697 69.979z" transform="matrix(1.45946 0 0 1 -195.741 -13.474)" fill="url(#l)" stroke="#7b0000" stroke-width="0"/><path d="M120.527 395.602s21.008 6.1 48.972 9.587c11.325 1.412 54.413 6.348 87.45 6.218 0 0 40.235.046 62.445-3.109 23.239-3.301 36.405-7.514 43.732-15.922.19-2.004 3.536-8.539-5.497-14.84-23.094-16.11-52.95-20.52-110.94-34.293-64.128-16.122-83.292-31.561-92.866-42.734-9.077-11.198 1.704-34.454 53.376-45.863 26.163-6.366 123.603-7.536 123.603-7.536-27.955-22.195-80.437-61.93-91.165-70.381-9.409-7.411-24.57-18.785-26.2-28.949-2.199-9.893 13.375-14.657 21.62-15.207 26.566-1.832 62.843 1.283 95.09 7.696 16.208 3.223 19.054 2.748 19.054 2.748 23.086 1.1 41.041-10.993 40.125-36.46-.183-25.834-26.012-46.55-54.599-47.454-26.92-.852-93.258 3.848-93.258 3.848 77.318 15.94 89.958 20.007 93.99 29.314 2.383 5.497-3.978 10.962-25.283 9.894-23.195-1.162-70.722-6.779-70.722-6.779-45.255-6.962-76.769-13.558-90.51 4.397-8.977 11.73 1.282 26.017 5.313 34.445 17.956 31.33 49.004 52.826 68.707 67.974 7.413 5.7 30.048 18.322 30.048 18.322-70.356-19.238-126.42-8.428-161.965 10.26-40.857 24.185-33.868 64.997 30.964 103.152 38.292 22.536 57.358 33.362 120.055 41.06 36.648 5.843 42.108 8.234 41.83 11.284-.392 4.294-43.376 5.922-55.19 6.737-30.057 2.073-107.79 2.59-108.179 2.59z" fill="#fff" fill-rule="evenodd" stroke="#000" stroke-width="0"/><path d="M279.476 404.243c-.007-.004-7.446-4.112-16.804-11.401-8.082-6.285-13.538-12.214-13.544-12.22l-.122-.133 3.646-4.669.157-.205.169.197c.017.01 5.4 6.295 13.725 12.78 7.913 6.157 16.594 10.586 16.612 10.595l.229.117-3.911 5.026-.157-.087zm-16.542-11.737c8.545 6.656 15.469 10.644 16.589 11.275l3.372-4.334c-1.423-.743-9.253-4.919-16.453-10.521-7.504-5.845-12.637-11.533-13.614-12.645l-3.264 4.184c.849.905 6.01 6.32 13.37 12.041z" fill="#4d4d4d"/><path fill="url(#m)" stroke="#4a4a4a" stroke-width="0" d="M129.889 112.053h378.895v389.888H129.889z"/><path d="M279.42 402.43s53.226-57.104 105.325-119.984l2.276.702s108.049-118.413 81.62-128c0 0-13.215-26.17-116.859 99.757l-.199 1.89c-47.82 55.149-100.953 122.39-100.953 122.39C209.59 438.18 185.22 481.787 187.237 486c2.739 5.728 92.341-82.998 92.182-83.572z" fill="url(#n)" fill-rule="evenodd" stroke="#000030" stroke-width=".5"/><path d="M248.89 380.284c11.634 11.91 30.597 24.002 30.597 24.002l3.756-4.764c-12.868-6.725-30.78-23.818-30.78-23.818l-3.574 4.58z" fill="url(#o)" fill-rule="evenodd" stroke="#606060" stroke-width=".5"/><path d="M349.522 256.429c20.52 13.1 36.643 28.948 36.643 28.948l2.749-3.206c-10.945-11.58-36.686-29.1-36.686-29.1l-2.706 3.358z" fill="url(#p)" fill-rule="evenodd" stroke="#606060" stroke-width=".5"/><path d="M462.247 151.811c10.81.916 12.642 10.444 12.642 10.444-49.286 51.3-121.474 125.87-121.474 125.87l-3.664-3.114c63.576-76.219 112.496-133.2 112.496-133.2" fill="url(#q)" fill-rule="evenodd" stroke="#4a4a4a" stroke-width=".6"/></svg>